<?xml version="1.0" standalone="no"?>
<!DOCTYPE svg PUBLIC "-//W3C//DTD SVG 20010904//EN"
 "http://www.w3.org/TR/2001/REC-SVG-20010904/DTD/svg10.dtd">
<svg version="1.0" xmlns="http://www.w3.org/2000/svg"
 width="512.000000pt" height="512.000000pt" viewBox="0 0 512.000000 512.000000"
 preserveAspectRatio="xMidYMid meet">

<g transform="translate(0.000000,512.000000) scale(0.100000,-0.100000)"
fill="#0D6EFD" stroke="none">
<path d="M1875 4739 c-418 -197 -859 -322 -1265 -359 -63 -5 -139 -10 -167
-10 -44 0 -58 -5 -85 -29 l-33 -29 0 -1214 c0 -1145 1 -1218 19 -1298 110
-503 532 -943 1251 -1302 197 -99 410 -182 448 -174 94 19 449 181 652 298
179 104 265 166 280 203 20 46 4 100 -38 125 -47 29 -77 25 -148 -22 -194
-125 -348 -210 -551 -301 -219 -99 -196 -96 -329 -41 -248 101 -566 278 -752
418 -292 219 -487 465 -571 716 -19 58 -39 140 -45 183 -7 52 -11 452 -11
1167 l0 1088 23 6 c12 3 42 6 67 6 65 0 306 37 440 66 267 60 582 165 815 272
66 30 134 55 150 55 17 0 102 -32 190 -70 368 -162 796 -281 1125 -313 63 -7
130 -14 147 -16 l33 -5 2 -715 3 -716 33 -29 c35 -31 73 -37 117 -17 57 26 55
1 55 838 0 548 -3 778 -11 793 -21 41 -51 57 -109 57 -399 2 -980 152 -1438
371 -67 33 -133 59 -145 59 -12 0 -80 -28 -152 -61z"/>
<path d="M1885 3714 c-115 -29 -202 -80 -300 -179 -70 -69 -99 -107 -127 -165
-117 -238 -80 -494 100 -700 l43 -49 -43 -22 c-127 -64 -251 -183 -311 -297
-55 -105 -68 -161 -74 -328 -7 -167 1 -210 44 -244 25 -20 39 -20 810 -20
l785 0 34 34 34 34 0 148 c0 177 -15 257 -67 363 -50 103 -186 240 -291 295
l-73 38 41 44 c147 159 207 379 156 573 -53 206 -215 381 -424 459 -85 32
-245 40 -337 16z m274 -213 c124 -39 200 -104 255 -220 29 -63 31 -72 31 -186
-1 -159 -20 -212 -114 -306 -94 -94 -147 -113 -306 -114 -114 0 -123 2 -186
31 -78 37 -140 91 -176 151 -99 169 -79 393 47 536 38 43 123 93 190 111 78
21 186 20 259 -3z m213 -1070 c190 -65 298 -225 298 -441 l0 -70 -641 0 -641
0 4 113 c3 97 8 120 31 169 53 108 145 190 262 230 43 15 91 17 341 18 260 0
297 -2 346 -19z"/>
<path d="M3700 2548 c-136 -19 -296 -89 -425 -185 -275 -205 -425 -539 -387
-861 52 -442 412 -802 854 -854 503 -59 989 336 1050 854 39 331 -122 675
-412 880 -202 143 -439 201 -680 166z m350 -228 c188 -53 362 -191 447 -356
66 -126 87 -216 87 -364 0 -222 -64 -381 -214 -530 -149 -150 -308 -214 -530
-214 -222 0 -381 64 -530 214 -150 149 -214 308 -214 530 0 222 64 381 214
530 117 118 248 184 415 211 78 12 241 2 325 -21z"/>
<path d="M4225 1911 c-11 -5 -126 -115 -255 -245 l-235 -236 -130 130 c-142
142 -172 160 -230 136 -43 -18 -65 -52 -65 -100 0 -38 7 -47 178 -219 97 -99
191 -185 208 -193 62 -26 80 -13 372 278 150 150 280 285 288 300 22 42 17 84
-13 118 -30 33 -83 47 -118 31z"/>
</g>
</svg>
